<svg width="21" height="20" viewBox="0 0 21 20" fill="none" xmlns="http://www.w3.org/2000/svg">
<path d="M17.0536 10.3535L17.4071 9.99998L17.0536 9.64642L12.4369 5.02976C12.4154 5.00823 12.4021 4.97749 12.4021 4.94164C12.4021 4.90579 12.4154 4.87506 12.4369 4.85353C12.4584 4.832 12.4892 4.81873 12.525 4.81873C12.5609 4.81873 12.5916 4.832 12.6131 4.85353L17.6715 9.91186C17.693 9.93339 17.7063 9.96413 17.7063 9.99998C17.7063 10.0358 17.693 10.0666 17.6715 10.0881L12.6131 15.1464C12.5984 15.1611 12.5844 15.1695 12.5715 15.1747C12.5582 15.1801 12.5427 15.1833 12.525 15.1833C12.5073 15.1833 12.4918 15.1801 12.4785 15.1747C12.4656 15.1695 12.4516 15.1611 12.4369 15.1464C12.4154 15.1249 12.4021 15.0942 12.4021 15.0583C12.4021 15.0225 12.4154 14.9917 12.4369 14.9702L17.0536 10.3535Z" fill="#ABABFC" stroke="#ABABFC"/>
<path d="M17.4416 10.625H3.41663C3.07496 10.625 2.79163 10.3417 2.79163 10C2.79163 9.65833 3.07496 9.375 3.41663 9.375H17.4416C17.7833 9.375 18.0666 9.65833 18.0666 10C18.0666 10.3417 17.7833 10.625 17.4416 10.625Z" fill="#ABABFC"/>
</svg>
