<svg width="18" height="18" viewBox="0 0 18 18" fill="none" xmlns="http://www.w3.org/2000/svg">
<path d="M14.9335 9.3534L15.2871 8.99984L14.9335 8.64629L10.7785 4.49129C10.7691 4.48185 10.7618 4.46715 10.7618 4.44734C10.7618 4.42753 10.7691 4.41284 10.7785 4.4034C10.788 4.39395 10.8027 4.38672 10.8225 4.38672C10.8423 4.38672 10.857 4.39395 10.8664 4.4034L15.4189 8.9559C15.4284 8.96534 15.4356 8.98003 15.4356 8.99984C15.4356 9.01965 15.4284 9.03435 15.4189 9.04379L10.8664 13.5963L11.2031 13.933L10.8664 13.5963C10.858 13.6047 10.851 13.6086 10.8457 13.6107C10.8398 13.6131 10.8322 13.6148 10.8225 13.6148C10.8127 13.6148 10.8051 13.6131 10.7993 13.6107C10.7939 13.6086 10.7869 13.6047 10.7785 13.5963C10.7691 13.5868 10.7618 13.5722 10.7618 13.5523C10.7618 13.5325 10.7691 13.5178 10.7785 13.5084L14.9335 9.3534Z" fill="#BEC3D5" stroke="#BEC3D5"/>
<path d="M15.2475 9.5625H2.625C2.3175 9.5625 2.0625 9.3075 2.0625 9C2.0625 8.6925 2.3175 8.4375 2.625 8.4375H15.2475C15.555 8.4375 15.81 8.6925 15.81 9C15.81 9.3075 15.555 9.5625 15.2475 9.5625Z" fill="#BEC3D5"/>
</svg>
