<svg width="18" height="18" viewBox="0 0 18 18" fill="none" xmlns="http://www.w3.org/2000/svg">
<path d="M3.0664 8.64629L2.71285 8.99984L3.0664 9.3534L7.2214 13.5084C7.23085 13.5178 7.23808 13.5325 7.23808 13.5523C7.23808 13.5722 7.23085 13.5868 7.2214 13.5963L7.21531 13.6024L7.21048 13.6076C7.20974 13.608 7.20822 13.6088 7.20567 13.6099C7.19867 13.6126 7.18846 13.6148 7.17746 13.6148C7.16769 13.6148 7.16008 13.6131 7.15426 13.6107C7.1489 13.6086 7.14194 13.6047 7.13351 13.5963L2.58101 9.04379C2.57157 9.03435 2.56433 9.01965 2.56433 8.99984C2.56433 8.98003 2.57157 8.96534 2.58101 8.9559L7.13351 4.4034C7.14295 4.39395 7.15765 4.38672 7.17746 4.38672C7.19727 4.38672 7.21196 4.39395 7.2214 4.4034C7.23085 4.41284 7.23808 4.42753 7.23808 4.44734C7.23808 4.46715 7.23085 4.48185 7.2214 4.49129L3.0664 8.64629Z" fill="#BEC3D5" stroke="#BEC3D5"/>
<path d="M15.3749 9.5625H2.75244C2.44494 9.5625 2.18994 9.3075 2.18994 9C2.18994 8.6925 2.44494 8.4375 2.75244 8.4375H15.3749C15.6824 8.4375 15.9374 8.6925 15.9374 9C15.9374 9.3075 15.6824 9.5625 15.3749 9.5625Z" fill="#BEC3D5"/>
</svg>
