<svg width="24" height="25" viewBox="0 0 24 25" fill="none" xmlns="http://www.w3.org/2000/svg">
<g id="discord">
<path id="Vector" d="M20.317 4.80108C18.7873 4.0992 17.147 3.58208 15.4319 3.28591C15.4007 3.28019 15.3695 3.29448 15.3534 3.32305C15.1424 3.69826 14.9087 4.18776 14.7451 4.57251C12.9004 4.29634 11.0652 4.29634 9.25832 4.57251C9.09465 4.17921 8.85248 3.69826 8.64057 3.32305C8.62449 3.29543 8.59328 3.28115 8.56205 3.28591C6.84791 3.58114 5.20756 4.09825 3.67693 4.80108C3.66368 4.80679 3.65233 4.81633 3.64479 4.8287C0.533392 9.47706 -0.31895 14.0112 0.0991801 18.4891C0.101072 18.511 0.11337 18.5319 0.130398 18.5452C2.18321 20.0528 4.17171 20.968 6.12328 21.5746C6.15451 21.5841 6.18761 21.5727 6.20748 21.547C6.66913 20.9166 7.08064 20.2518 7.43348 19.5528C7.4543 19.5119 7.43442 19.4633 7.39186 19.4471C6.73913 19.1995 6.1176 18.8976 5.51973 18.5548C5.47244 18.5272 5.46865 18.4595 5.51216 18.4271C5.63797 18.3329 5.76382 18.2348 5.88396 18.1357C5.90569 18.1176 5.93598 18.1138 5.96153 18.1252C9.88928 19.9185 14.1415 19.9185 18.023 18.1252C18.0485 18.1129 18.0788 18.1167 18.1015 18.1348C18.2216 18.2338 18.3475 18.3329 18.4742 18.4271C18.5177 18.4595 18.5149 18.5272 18.4676 18.5548C17.8697 18.9043 17.2482 19.1995 16.5945 19.4462C16.552 19.4623 16.533 19.5119 16.5538 19.5528C16.9143 20.2509 17.3258 20.9156 17.7789 21.5461C17.7978 21.5727 17.8319 21.5841 17.8631 21.5746C19.8241 20.968 21.8126 20.0528 23.8654 18.5452C23.8834 18.5319 23.8948 18.5119 23.8967 18.49C24.3971 13.3131 23.0585 8.81615 20.3482 4.82964C20.3416 4.81633 20.3303 4.80679 20.317 4.80108ZM8.02002 15.7625C6.8375 15.7625 5.86313 14.6768 5.86313 13.3436C5.86313 12.0103 6.8186 10.9246 8.02002 10.9246C9.23087 10.9246 10.1958 12.0198 10.1769 13.3436C10.1769 14.6768 9.22141 15.7625 8.02002 15.7625ZM15.9947 15.7625C14.8123 15.7625 13.8379 14.6768 13.8379 13.3436C13.8379 12.0103 14.7933 10.9246 15.9947 10.9246C17.2056 10.9246 18.1705 12.0198 18.1516 13.3436C18.1516 14.6768 17.2056 15.7625 15.9947 15.7625Z" fill="#54545C"/>
</g>
</svg>
