<svg width="72" height="72" viewBox="0 0 72 72" fill="none" xmlns="http://www.w3.org/2000/svg">
<path opacity="0.4" d="M39.9153 17.6473V18.1964C38.4432 18.1675 36.9712 18.1675 35.4992 18.1675V17.6762C35.4992 15.682 33.8211 14.0635 31.8191 14.0635H28.9045C25.5777 14.0635 22.8691 11.4046 22.8691 8.16761C22.8691 6.98265 23.8701 6 25.0772 6C26.3137 6 27.2852 6.98265 27.2852 8.16761C27.2852 9.03465 28.0213 9.72829 28.9045 9.72829H31.8191C36.2646 9.75719 39.8858 13.3121 39.9153 17.6473Z" fill="url(#paint0_linear_102_521)"/>
<path fill-rule="evenodd" clip-rule="evenodd" d="M45.492 18.248C46.4373 18.261 47.3848 18.274 48.3356 18.2837C58.5515 18.2837 66 25.5669 66 35.6246V48.5435C66 58.6012 58.5515 65.8844 48.3356 65.8844C44.2434 65.9711 40.1511 66 36.0294 66C31.9078 66 27.7566 65.9711 23.6644 65.8844C13.4485 65.8844 6 58.6012 6 48.5435V35.6246C6 25.5669 13.4485 18.2837 23.6938 18.2837C27.5505 18.2259 31.4956 18.1681 35.4995 18.1681C36.9715 18.1681 38.4436 18.1681 39.9156 18.197C41.7715 18.197 43.6275 18.2224 45.492 18.248ZM32.5554 44.2372H29.4642V47.3008C29.4642 48.4857 28.4632 49.4684 27.2561 49.4684C26.0196 49.4684 25.0481 48.4857 25.0481 47.3008V44.2372H21.9274C20.7203 44.2372 19.7193 43.2835 19.7193 42.0696C19.7193 40.8846 20.7203 39.902 21.9274 39.902H25.0481V36.8673C25.0481 35.6824 26.0196 34.6997 27.2561 34.6997C28.4632 34.6997 29.4642 35.6824 29.4642 36.8673V39.902H32.5554C33.7625 39.902 34.7635 40.8846 34.7635 42.0696C34.7635 43.2835 33.7625 44.2372 32.5554 44.2372ZM45.0677 39.3529H45.3621C46.5692 39.3529 47.5702 38.3991 47.5702 37.1852C47.5702 36.0003 46.5692 35.0176 45.3621 35.0176H45.0677C43.8312 35.0176 42.8597 36.0003 42.8597 37.1852C42.8597 38.3991 43.8312 39.3529 45.0677 39.3529ZM50.1021 49.295H50.3965C51.6035 49.295 52.6045 48.3412 52.6045 47.1273C52.6045 45.9424 51.6035 44.9597 50.3965 44.9597H50.1021C48.8656 44.9597 47.894 45.9424 47.894 47.1273C47.894 48.3412 48.8656 49.295 50.1021 49.295Z" fill="url(#paint1_linear_102_521)"/>
<defs>
<linearGradient id="paint0_linear_102_521" x1="22.8691" y1="12.0982" x2="39.9153" y2="12.0982" gradientUnits="userSpaceOnUse">
<stop stop-color="#82FCF4"/>
<stop offset="1" stop-color="#ABABFC"/>
</linearGradient>
<linearGradient id="paint1_linear_102_521" x1="6" y1="42.0841" x2="66" y2="42.0841" gradientUnits="userSpaceOnUse">
<stop stop-color="#82FCF4"/>
<stop offset="1" stop-color="#ABABFC"/>
</linearGradient>
</defs>
</svg>
