<svg width="73" height="72" viewBox="0 0 73 72" fill="none" xmlns="http://www.w3.org/2000/svg">
<path d="M30.7916 16.6666C30.9444 16.9776 31.0453 17.3107 31.0905 17.6531L31.9258 30.0728L32.3405 36.3153C32.3448 36.9572 32.4455 37.5951 32.6394 38.2082C33.1402 39.3977 34.3449 40.1538 35.6555 40.1011L55.6274 38.7947C56.4922 38.7804 57.3274 39.1039 57.9491 39.6939C58.4672 40.1856 58.8017 40.8288 58.9071 41.5205L58.9424 41.9406C58.116 53.3848 49.7108 62.93 38.2904 65.394C26.87 67.8581 15.159 62.653 9.5155 52.6047C7.88854 49.6855 6.87232 46.4768 6.52652 43.167C6.38206 42.1872 6.31845 41.1975 6.33631 40.2077C6.31848 27.9383 15.0558 17.3309 27.2864 14.7738C28.7584 14.5446 30.2015 15.3238 30.7916 16.6666Z" fill="url(#paint0_linear_102_538)"/>
<path opacity="0.4" d="M38.9434 6.00246C52.623 6.35048 64.1203 16.1874 66.3333 29.4369L66.3122 29.5346L66.2518 29.6768L66.2602 30.0671C66.2289 30.5841 66.0293 31.0816 65.6852 31.4835C65.3269 31.902 64.8373 32.1871 64.2981 32.2977L63.9693 32.3428L40.927 33.8358C40.1605 33.9114 39.3974 33.6643 38.8274 33.1559C38.3524 32.7322 38.0487 32.1603 37.9629 31.544L36.4163 8.53519C36.3894 8.45739 36.3894 8.37305 36.4163 8.29524C36.4374 7.66102 36.7166 7.06152 37.1915 6.63069C37.6663 6.19986 38.2973 5.9736 38.9434 6.00246Z" fill="url(#paint1_linear_102_538)"/>
<defs>
<linearGradient id="paint0_linear_102_538" x1="6.33337" y1="40.367" x2="58.9424" y2="40.367" gradientUnits="userSpaceOnUse">
<stop stop-color="#82FCF4"/>
<stop offset="1" stop-color="#ABABFC"/>
</linearGradient>
<linearGradient id="paint1_linear_102_538" x1="36.3961" y1="19.9246" x2="66.3333" y2="19.9246" gradientUnits="userSpaceOnUse">
<stop stop-color="#82FCF4"/>
<stop offset="1" stop-color="#ABABFC"/>
</linearGradient>
</defs>
</svg>
