<svg width="24" height="25" viewBox="0 0 24 25" fill="none" xmlns="http://www.w3.org/2000/svg">
<path d="M24 12.4732C24 15.6525 23.4671 18.2315 22.8097 18.2315C22.1522 18.2315 21.6196 15.6532 21.6196 12.4732C21.6196 9.29319 22.1524 6.71495 22.8097 6.71495C23.4669 6.71495 24 9.29296 24 12.4732Z" fill="#54545C"/>
<path d="M20.9628 12.4732C20.9628 16.0225 19.4476 18.901 17.5784 18.901C15.7092 18.901 14.194 16.0225 14.194 12.4732C14.194 8.92389 15.709 6.04546 17.5782 6.04546C19.4473 6.04546 20.9628 8.92297 20.9628 12.4732Z" fill="#54545C"/>
<path d="M13.5374 12.4732C13.5374 16.2439 10.5069 19.3007 6.76884 19.3007C3.03073 19.3007 0 16.2432 0 12.4732C0 8.70318 3.0305 5.64551 6.76884 5.64551C10.5072 5.64551 13.5374 8.70249 13.5374 12.4732Z" fill="#54545C"/>
</svg>
