<svg width="24" height="25" viewBox="0 0 24 25" fill="none" xmlns="http://www.w3.org/2000/svg">
<g clip-path="url(#clip0_2570_4728)">
<path d="M7.55016 22.3957C16.6045 22.3957 21.5583 14.8925 21.5583 8.38761C21.5583 8.17668 21.5536 7.96105 21.5442 7.75011C22.5079 7.05321 23.3395 6.19001 24 5.20105C23.1025 5.60035 22.1496 5.86113 21.1739 5.97449C22.2013 5.35866 22.9705 4.39122 23.3391 3.25152C22.3726 3.82431 21.3156 4.22836 20.2134 4.44636C19.4708 3.65731 18.489 3.13487 17.4197 2.9598C16.3504 2.78474 15.2532 2.9668 14.2977 3.47785C13.3423 3.98889 12.5818 4.80046 12.1338 5.78706C11.6859 6.77367 11.5754 7.88037 11.8195 8.93605C9.86249 8.83784 7.94794 8.32946 6.19998 7.44385C4.45203 6.55824 2.90969 5.31519 1.67297 3.79527C1.0444 4.879 0.852057 6.1614 1.13503 7.38184C1.418 8.60229 2.15506 9.6692 3.19641 10.3657C2.41463 10.3409 1.64998 10.1304 0.965625 9.75167V9.81261C0.964925 10.9499 1.3581 12.0523 2.07831 12.9325C2.79852 13.8127 3.80132 14.4163 4.91625 14.6407C4.19206 14.8389 3.43198 14.8678 2.69484 14.7251C3.00945 15.7032 3.62157 16.5586 4.44577 17.1721C5.26997 17.7855 6.26512 18.1263 7.29234 18.147C5.54842 19.5169 3.39417 20.2599 1.17656 20.2564C0.783287 20.2558 0.390399 20.2317 0 20.1842C2.25286 21.6295 4.87353 22.3971 7.55016 22.3957Z" fill="#54545C"/>
</g>
<defs>
<clipPath id="clip0_2570_4728">
<rect width="24" height="24" fill="white" transform="translate(0 0.645508)"/>
</clipPath>
</defs>
</svg>
