<svg width="73" height="72" viewBox="0 0 73 72" fill="none" xmlns="http://www.w3.org/2000/svg">
<g opacity="0.4">
<path d="M28.7147 37.5745C36.8135 37.5745 43.3038 31.2185 43.3038 23.2872C43.3038 15.356 36.8135 9 28.7147 9C20.6188 9 14.1256 15.356 14.1256 23.2872C14.1256 31.2185 20.6188 37.5745 28.7147 37.5745Z" fill="url(#paint0_linear_102_245)"/>
<path d="M49.187 23.5462C49.187 27.5852 47.9482 31.3539 45.776 34.4845C45.55 34.8064 45.7496 35.2405 46.1429 35.3095C46.6889 35.3986 47.2496 35.4532 47.822 35.4647C53.5167 35.6113 58.6273 32.0208 60.0392 26.6135C62.1322 18.5903 55.9913 11.3863 48.1684 11.3863C47.32 11.3863 46.5069 11.4725 45.7143 11.6306C45.6057 11.6536 45.4883 11.7054 45.4296 11.7974C45.3533 11.9152 45.4091 12.0676 45.4854 12.1682C47.8367 15.3965 49.187 19.3262 49.187 23.5462Z" fill="url(#paint1_linear_102_245)"/>
</g>
<path d="M28.7147 44.5731C16.8233 44.5731 6.66669 46.4101 6.66669 53.752C6.66669 61.0998 16.7587 62.9999 28.7147 62.9999C40.6061 62.9999 50.7627 61.163 50.7627 53.821C50.7627 46.4733 40.6707 44.5731 28.7147 44.5731Z" fill="url(#paint2_linear_102_245)"/>
<path d="M66.004 45.508C64.9619 43.3319 62.4463 41.8399 58.6185 41.1068C56.8132 40.6756 51.9228 40.0633 47.3758 40.1496C47.3083 40.1582 47.2701 40.2042 47.2642 40.2329C47.2554 40.2789 47.276 40.3479 47.3641 40.3968C49.4658 41.4144 57.5881 45.8415 56.5666 55.1785C56.5226 55.5867 56.8543 55.9316 57.2682 55.8741C59.2672 55.5953 64.4101 54.5115 66.004 51.1424C66.8876 49.3601 66.8876 47.2903 66.004 45.508Z" fill="url(#paint3_linear_102_245)"/>
<defs>
<linearGradient id="paint0_linear_102_245" x1="14.1256" y1="23.2872" x2="60.4528" y2="23.2872" gradientUnits="userSpaceOnUse">
<stop stop-color="#82FCF4"/>
<stop offset="1" stop-color="#ABABFC"/>
</linearGradient>
<linearGradient id="paint1_linear_102_245" x1="14.1256" y1="23.2872" x2="60.4528" y2="23.2872" gradientUnits="userSpaceOnUse">
<stop stop-color="#82FCF4"/>
<stop offset="1" stop-color="#ABABFC"/>
</linearGradient>
<linearGradient id="paint2_linear_102_245" x1="6.66669" y1="51.5707" x2="66.6667" y2="51.5707" gradientUnits="userSpaceOnUse">
<stop stop-color="#82FCF4"/>
<stop offset="1" stop-color="#ABABFC"/>
</linearGradient>
<linearGradient id="paint3_linear_102_245" x1="6.66669" y1="51.5707" x2="66.6667" y2="51.5707" gradientUnits="userSpaceOnUse">
<stop stop-color="#82FCF4"/>
<stop offset="1" stop-color="#ABABFC"/>
</linearGradient>
</defs>
</svg>
