<svg width="24" height="25" viewBox="0 0 24 25" fill="none" xmlns="http://www.w3.org/2000/svg">
<g id="youtube">
<path id="Vector" d="M23.7609 7.84531C23.7609 7.84531 23.5266 6.19063 22.8047 5.46406C21.8906 4.50781 20.8688 4.50312 20.4 4.44687C17.0438 4.20312 12.0047 4.20312 12.0047 4.20312H11.9953C11.9953 4.20312 6.95625 4.20312 3.6 4.44687C3.13125 4.50312 2.10938 4.50781 1.19531 5.46406C0.473438 6.19063 0.24375 7.84531 0.24375 7.84531C0.24375 7.84531 0 9.79063 0 11.7313V13.55C0 15.4906 0.239062 17.4359 0.239062 17.4359C0.239062 17.4359 0.473437 19.0906 1.19062 19.8172C2.10469 20.7734 3.30469 20.7406 3.83906 20.8438C5.76094 21.0266 12 21.0828 12 21.0828C12 21.0828 17.0438 21.0734 20.4 20.8344C20.8688 20.7781 21.8906 20.7734 22.8047 19.8172C23.5266 19.0906 23.7609 17.4359 23.7609 17.4359C23.7609 17.4359 24 15.4953 24 13.55V11.7313C24 9.79063 23.7609 7.84531 23.7609 7.84531ZM9.52031 15.7578V9.0125L16.0031 12.3969L9.52031 15.7578Z" fill="#54545C"/>
</g>
</svg>
